<?xml version="1.0" encoding="utf-8"?>
<!-- Generator: Adobe Illustrator 16.0.0, SVG Export Plug-In . SVG Version: 6.00 Build 0)  -->
<!DOCTYPE svg PUBLIC "-//W3C//DTD SVG 1.1//EN" "http://www.w3.org/Graphics/SVG/1.1/DTD/svg11.dtd">
<svg version="1.1" xmlns="http://www.w3.org/2000/svg" xmlns:xlink="http://www.w3.org/1999/xlink" x="0px" y="0px" width="960px"
	 height="560px" viewBox="0 0 960 560" enable-background="new 0 0 960 560" xml:space="preserve">
<g id="Layer_1">
	<path fill="#363A23" d="M673.434,170.1h-23.1v61.7h-30.801v-61.7h-23.101v-15.399h77.101V170.1H673.434z"/>
	<polygon fill="#363A23" points="642.533,237.8 650.334,231.8 650.334,176.1 642.533,176.1 	"/>
	<polyline fill="#363A23" points="673.434,170.1 673.533,154.701 665.634,160.701 665.634,176.1 	"/>
	<polygon fill="#363A23" points="588.533,160.701 596.434,154.701 673.533,154.701 665.634,160.701 	"/>
	<path fill="#363A23" d="M373.113,231.8h-69.4v-7.7h-7.699v-61.7h7.699v-7.699h69.399V170.1h-46.299v46.3h46.3V231.8z"/>
	<polygon fill="#363A23" points="365.313,237.8 373.113,231.8 373.113,216.4 365.313,222.4 	"/>
	<polygon fill="#363A23" points="365.313,176.1 373.113,170.1 373.113,154.701 365.313,160.701 	"/>
	<polygon fill="#363A23" points="295.914,160.701 303.712,154.701 373.113,154.701 365.313,160.701 	"/>
	<path fill="#363A23" d="M272.873,231.8h-30.8V201h-15.399v30.8h-30.801v-69.4h7.7v-7.699h61.7v7.699h7.699v69.4H272.873z
		 M242.073,185.5v-15.4h-15.399v15.4H242.073z"/>
	<polygon fill="#363A23" points="265.174,237.8 272.873,231.8 272.973,162.4 265.174,168.4 	"/>
	<polygon fill="#363A23" points="218.873,237.8 226.674,231.8 226.624,207 218.873,207 	"/>
	<polygon fill="#363A23" points="195.773,160.701 203.573,154.701 265.273,154.701 257.473,160.701 	"/>
	<path fill="#363A23" d="M573.294,231.8h-30.8V201h-15.399v30.8h-30.801v-77.099h69.4v7.699h7.699v23.1h-7.699V201h7.699v30.8
		H573.294z M542.494,185.5v-15.4h-15.399v15.4H542.494z"/>
	<polygon fill="#363A23" points="565.494,237.8 573.394,231.8 573.394,201 565.595,207 	"/>
	<polygon fill="#363A23" points="519.294,237.8 527.095,231.8 527.095,207 519.294,207 	"/>
	<polygon fill="#363A23" points="488.494,160.701 496.294,154.701 565.694,154.701 557.894,160.701 	"/>
	<polygon fill="#363A23" points="565.595,191.5 573.394,185.5 573.394,162.4 565.595,168.4 	"/>
	<path fill="#363A23" d="M473.253,231.8h-69.4v-7.7h-7.699v-61.7h7.699v-7.699h69.399V170.1h-46.3v15.4h23.102V201h-23.101v15.4
		h46.3V231.8z"/>
	<polygon fill="#363A23" points="442.153,207 450.054,201 450.054,185.5 442.153,191.5 	"/>
	<polygon fill="#363A23" points="465.353,237.8 473.253,231.8 473.253,216.4 465.353,222.4 	"/>
	<polygon fill="#363A23" points="465.353,176.1 473.253,170.1 473.253,154.701 465.353,160.701 	"/>
	<polygon fill="#363A23" points="395.953,160.701 403.853,154.701 473.253,154.701 465.353,160.701 	"/>
	<path fill="#363A23" d="M773.674,231.8h-69.399v-7.7h-7.7v-61.7h7.7v-7.699h69.399V170.1h-46.301v15.4h23.1V201h-23.1v15.4h46.301
		V231.8z"/>
	<polygon fill="#363A23" points="765.873,237.8 773.674,231.8 773.674,216.4 765.873,222.4 	"/>
	<polygon fill="#363A23" points="742.674,207 750.473,201 750.473,185.5 742.674,191.5 	"/>
	<polygon fill="#363A23" points="765.773,176.1 773.674,170.1 773.674,154.701 765.773,160.701 	"/>
	<polygon fill="#363A23" points="696.373,160.701 704.273,154.701 773.674,154.701 765.773,160.701 	"/>
	<path fill="#363A23" d="M710.054,345.871h-7.701v7.7h-69.399v-77.099h30.8v61.699h15.4v-61.699h30.8v69.398H710.054z"/>
	<polygon fill="#363A23" points="694.453,359.571 702.353,353.571 702.054,351.871 694.453,351.871 	"/>
	<polygon fill="#363A23" points="702.153,351.021 709.953,345.871 709.953,276.473 702.054,282.473 	"/>
	<polygon fill="#363A23" points="671.504,282.473 679.153,276.473 709.953,276.473 702.054,282.473 	"/>
	<polygon fill="#363A23" points="625.054,282.473 632.953,276.473 663.753,276.473 655.853,282.473 	"/>
	<polygon fill="#363A23" points="293.733,321.071 301.534,315.071 301.534,284.172 293.733,290.172 	"/>
	<path fill="#363A23" d="M505.057,353.571h-77.101v-77.099h30.8v61.699h46.301V353.571z"/>
	<polygon fill="#363A23" points="420.057,282.473 427.956,276.473 458.756,276.473 450.855,282.473 	"/>
	<polygon fill="#363A23" points="497.156,359.571 505.057,353.571 505.057,338.172 497.156,344.172 	"/>
	<path fill="#363A23" d="M143.727,353.571h-30.8v-30.8H97.527v30.8H66.727v-69.399h7.7v-7.699h61.7v7.699h7.699v69.399H143.727z
		 M112.927,307.271v-15.4H97.527v15.4H112.927z"/>
	<polygon fill="#363A23" points="136.027,359.571 143.727,353.571 143.826,284.172 136.027,290.172 	"/>
	<polygon fill="#363A23" points="89.727,359.571 97.527,353.571 97.478,328.771 89.727,328.771 	"/>
	<polygon fill="#363A23" points="66.627,282.473 74.427,276.473 136.127,276.473 128.326,282.473 	"/>
	<path fill="#363A23" d="M398.738,353.571h-30.8v-30.8h-15.399v30.8h-30.801v-69.399h7.7v-7.699h61.7v7.699h7.699v69.399H398.738z
		 M367.938,307.271v-15.4h-15.399v15.4H367.938z"/>
	<polygon fill="#363A23" points="391.039,359.571 398.738,353.571 398.838,284.172 391.039,290.172 	"/>
	<polygon fill="#363A23" points="344.738,359.571 352.539,353.571 352.489,328.771 344.738,328.771 	"/>
	<polygon fill="#363A23" points="321.639,282.473 329.438,276.473 391.139,276.473 383.338,282.473 	"/>
	<path fill="#363A23" d="M604.226,353.571h-30.8v-30.8h-15.399v30.8h-30.801v-69.399h7.7v-7.699h61.7v7.699h7.699v69.399H604.226z
		 M573.426,307.271v-15.4h-15.399v15.4H573.426z"/>
	<polygon fill="#363A23" points="596.526,359.571 604.226,353.571 604.325,284.172 596.526,290.172 	"/>
	<polygon fill="#363A23" points="550.226,359.571 558.026,353.571 557.977,328.771 550.226,328.771 	"/>
	<polygon fill="#363A23" points="527.126,282.473 534.926,276.473 596.626,276.473 588.825,282.473 	"/>
	<path fill="#363A23" d="M807.002,353.571h-30.8v-30.8h-15.399v30.8h-30.801v-77.099h69.4v7.699h7.699v23.1h-7.699v15.5h7.699v30.8
		H807.002z M776.202,307.371v-15.398h-15.399v15.398H776.202L776.202,307.371z"/>
	<polygon fill="#363A23" points="752.902,359.571 760.803,353.571 760.652,328.771 752.902,328.771 	"/>
	<polygon fill="#363A23" points="799.102,359.571 807.102,353.571 807.102,322.771 799.202,328.771 	"/>
	<polygon fill="#363A23" points="799.202,313.271 807.102,307.271 807.102,284.172 799.202,290.172 	"/>
	<polygon fill="#363A23" points="722.102,282.473 730.002,276.473 799.402,276.473 791.502,282.473 	"/>
	<path fill="#363A23" d="M902.721,353.571h-30.8v-30.8h-15.399v30.8h-30.801v-69.399h7.7v-7.699h61.7v7.699h7.699v69.399H902.721z
		 M871.921,307.271v-15.4h-15.399v15.4H871.921z"/>
	<polygon fill="#363A23" points="895.021,359.571 902.721,353.571 902.82,284.172 895.021,290.172 	"/>
	<polygon fill="#363A23" points="848.721,359.571 856.521,353.571 856.472,328.771 848.721,328.771 	"/>
	<polygon fill="#363A23" points="825.621,282.473 833.421,276.473 895.121,276.473 887.32,282.473 	"/>
	<polygon fill="#363A23" points="216.633,282.473 224.433,276.473 293.833,276.473 286.034,282.473 	"/>
	<path fill="#363A23" d="M301.534,315.071h-7.701v7.7h-38.5v30.8h-30.899v-77.099h69.399v7.699h7.701V315.071z M270.733,307.371
		v-15.398h-15.4v15.398H270.733L270.733,307.371z"/>
	<polygon fill="#363A23" points="247.433,359.571 255.333,353.571 254.883,328.771 247.433,328.771 	"/>
	<polygon fill="#363A23" points="285.933,328.771 293.833,322.771 285.933,322.771 	"/>
</g>
<g id="Layer_2">
	<path fill="#636940" d="M665.634,176.1h-23.101v61.7h-30.899v-61.7h-23.101v-15.399h77.101V176.1z"/>
	<path fill="#636940" d="M365.313,237.8h-69.399v-7.7h-7.701v-61.7h7.701v-7.699h69.399V176.1h-46.3v46.3h46.3V237.8z"/>
	<path fill="#636940" d="M265.073,237.8h-30.8V207h-15.4v30.8h-30.8v-69.4h7.7v-7.699h61.699v7.699h7.701v69.4H265.073z
		 M234.174,191.5v-15.4h-15.399v15.4H234.174z"/>
	<path fill="#636940" d="M565.494,237.8h-30.8V207h-15.4v30.8h-30.8v-77.099h69.399v7.699h7.701v23.1h-7.701V207h7.701v30.8H565.494
		z M534.595,191.5v-15.4h-15.399v15.4H534.595z"/>
	<path fill="#636940" d="M465.353,237.8h-69.399v-7.7h-7.7v-61.7h7.7v-7.699h69.399V176.1h-46.299v15.4h23.1V207h-23.1v15.4h46.299
		V237.8z"/>
	<path fill="#636940" d="M765.773,237.8h-69.4v-7.7h-7.699v-61.7h7.699v-7.699h69.4V176.1h-46.2v15.4h23.101V207h-23.101v15.4h46.3
		v15.4H765.773z"/>
	<path fill="#636940" d="M702.153,351.871h-7.7v7.7h-69.399v-77.099h30.799v61.699h15.4v-61.699h30.801v69.398H702.153z"/>
	<path fill="#636940" d="M293.633,321.071h-7.7v7.7h-38.5v30.8h-30.8v-77.099h69.4v7.699h7.698v30.898L293.633,321.071
		L293.633,321.071z M262.833,313.371v-15.398h-15.399v15.398H262.833L262.833,313.371z"/>
	<path fill="#636940" d="M497.156,359.571h-77.1v-77.099h30.799v61.699h46.301V359.571z"/>
	<path fill="#636940" d="M135.927,359.571h-30.8v-30.8h-15.4v30.8h-30.8v-69.399h7.7v-7.699h61.699v7.699h7.701v69.399H135.927z
		 M105.027,313.271v-15.4H89.628v15.4H105.027z"/>
	<path fill="#636940" d="M390.938,359.571h-30.8v-30.8h-15.4v30.8h-30.8v-69.399h7.7v-7.699h61.699v7.699h7.701v69.399H390.938z
		 M360.039,313.271v-15.4H344.64v15.4H360.039z"/>
	<path fill="#636940" d="M596.426,359.571h-30.8v-30.8h-15.4v30.8h-30.8v-69.399h7.7v-7.699h61.699v7.699h7.701v69.399H596.426z
		 M565.526,313.271v-15.4h-15.399v15.4H565.526z"/>
	<path fill="#636940" d="M799.102,359.571h-30.799v-30.8h-15.4v30.8h-30.801v-77.099h69.4v7.699h7.7v23.1h-7.7v15.5h7.7v30.8
		H799.102z M768.303,313.371v-15.398h-15.399v15.398H768.303L768.303,313.371z"/>
	<path fill="#636940" d="M894.921,359.571h-30.8v-30.8h-15.4v30.8h-30.8v-69.399h7.7v-7.699h61.699v7.699h7.701v69.399H894.921z
		 M864.021,313.271v-15.4h-15.399v15.4H864.021z"/>
</g>
</svg>
